<?xml version="1.0" encoding="UTF-8" standalone="no"?>
<svg
   xmlns:dc="http://purl.org/dc/elements/1.1/"
   xmlns:cc="http://creativecommons.org/ns#"
   xmlns:rdf="http://www.w3.org/1999/02/22-rdf-syntax-ns#"
   xmlns:svg="http://www.w3.org/2000/svg"
   xmlns="http://www.w3.org/2000/svg"
   xmlns:sodipodi="http://sodipodi.sourceforge.net/DTD/sodipodi-0.dtd"
   xmlns:inkscape="http://www.inkscape.org/namespaces/inkscape"
   version="1.1"
   id="svg2"
   height="48.142136"
   width="164.909"
   sodipodi:docname="isologo.svg"
   inkscape:version="0.92.4 (5da689c313, 2019-01-14)"
   inkscape:export-filename="/home/ntrrg/Development/Web/ntweb/static/images/isologo-bg-rounded.png"
   inkscape:export-xdpi="349.28354"
   inkscape:export-ydpi="349.28354"
   style="enable-background:new">
  <sodipodi:namedview
     pagecolor="#ffffff"
     bordercolor="#666666"
     borderopacity="1"
     objecttolerance="10"
     gridtolerance="10"
     guidetolerance="10"
     inkscape:pageopacity="0"
     inkscape:pageshadow="2"
     inkscape:window-width="1366"
     inkscape:window-height="706"
     id="namedview10"
     showgrid="true"
     inkscape:zoom="4.0000002"
     inkscape:cx="106.60795"
     inkscape:cy="10.54531"
     inkscape:window-x="0"
     inkscape:window-y="30"
     inkscape:window-maximized="1"
     inkscape:current-layer="layer5"
     inkscape:measure-start="36,37"
     inkscape:measure-end="36,24"
     showguides="false"
     fit-margin-top="5"
     fit-margin-left="5"
     fit-margin-right="5"
     fit-margin-bottom="5">
    <inkscape:grid
       type="xygrid"
       id="grid1011"
       originx="-0.92893219"
       originy="-0.92893221" />
  </sodipodi:namedview>
  <defs
     id="defs4">
    <inkscape:path-effect
       effect="spiro"
       id="path-effect4985"
       is_visible="true" />
    <inkscape:path-effect
       effect="spiro"
       id="path-effect4981"
       is_visible="true" />
    <inkscape:path-effect
       effect="spiro"
       id="path-effect4977"
       is_visible="true" />
    <inkscape:path-effect
       effect="spiro"
       id="path-effect4973"
       is_visible="true" />
    <inkscape:path-effect
       effect="spiro"
       id="path-effect4945"
       is_visible="true" />
    <inkscape:path-effect
       effect="spiro"
       id="path-effect4941"
       is_visible="true" />
    <inkscape:path-effect
       effect="spiro"
       id="path-effect4937"
       is_visible="true" />
    <inkscape:path-effect
       effect="spiro"
       id="path-effect4933"
       is_visible="true" />
    <inkscape:path-effect
       effect="spiro"
       id="path-effect4926"
       is_visible="true" />
    <inkscape:path-effect
       effect="spiro"
       id="path-effect4922"
       is_visible="true" />
    <inkscape:path-effect
       effect="spiro"
       id="path-effect4918"
       is_visible="true" />
    <inkscape:path-effect
       effect="bspline"
       id="path-effect4914"
       is_visible="true"
       weight="33.333333"
       steps="2"
       helper_size="0"
       apply_no_weight="true"
       apply_with_weight="true"
       only_selected="false" />
    <inkscape:path-effect
       effect="spiro"
       id="path-effect4910"
       is_visible="true" />
    <inkscape:path-effect
       effect="skeletal"
       id="path-effect4906"
       is_visible="true"
       pattern="M 0,5 C 0,2.24 2.24,0 5,0 7.76,0 10,2.24 10,5 10,7.76 7.76,10 5,10 2.24,10 0,7.76 0,5 Z"
       copytype="single_stretched"
       prop_scale="1"
       scale_y_rel="false"
       spacing="0"
       normal_offset="0"
       tang_offset="0"
       prop_units="false"
       vertical_pattern="false"
       fuse_tolerance="0" />
    <inkscape:path-effect
       effect="spiro"
       id="path-effect4904"
       is_visible="true" />
    <marker
       id="Arrow2Sstart"
       inkscape:isstock="true"
       inkscape:stockid="Arrow2Sstart"
       orient="auto"
       refX="0"
       refY="0"
       style="overflow:visible">
      <path
         d="M 8.72,4.03 -2.21,0.02 8.72,-4 c -1.75,2.37 -1.74,5.62 0,8.03 z"
         id="Arrow2SstartPath"
         style="fill:#000000;fill-opacity:1;stroke:#000000;stroke-opacity:1"
         transform="matrix(0.3,0,0,0.3,-0.69,0)"
         inkscape:connector-curvature="0" />
    </marker>
    <marker
       id="Arrow2Send"
       inkscape:isstock="true"
       inkscape:stockid="Arrow2Send"
       orient="auto"
       refX="0"
       refY="0"
       style="overflow:visible">
      <path
         d="M 8.72,4.03 -2.21,0.02 8.72,-4 c -1.75,2.37 -1.74,5.62 0,8.03 z"
         id="Arrow2SendPath"
         style="fill:#000000;fill-opacity:1;stroke:#000000;stroke-opacity:1"
         transform="matrix(-0.3,0,0,-0.3,0.69,0)"
         inkscape:connector-curvature="0" />
    </marker>
    <inkscape:path-effect
       effect="spiro"
       id="path-effect4973-1"
       is_visible="true" />
    <inkscape:path-effect
       effect="spiro"
       id="path-effect4973-1-7"
       is_visible="true" />
    <inkscape:path-effect
       effect="spiro"
       id="path-effect4973-1-7-9"
       is_visible="true" />
    <inkscape:path-effect
       effect="spiro"
       id="path-effect4973-1-7-9-6"
       is_visible="true" />
  </defs>
  <metadata
     id="metadata7">
    <rdf:RDF>
      <cc:Work
         rdf:about="">
        <dc:format>image/svg+xml</dc:format>
        <dc:type
           rdf:resource="http://purl.org/dc/dcmitype/StillImage" />
        <dc:title />
      </cc:Work>
    </rdf:RDF>
  </metadata>
  <g
     style="display:inline"
     id="layer3"
     transform="translate(-0.92893219,14.937733)" />
  <g
     inkscape:groupmode="layer"
     id="layer4"
     inkscape:label="Background (round)"
     style="display:inline">
    <rect
       style="display:inline;fill:#ffffff;fill-opacity:1;fill-rule:nonzero;stroke:none;stroke-width:8.8994379;stroke-linecap:butt;stroke-linejoin:miter;stroke-miterlimit:4;stroke-dasharray:none;stroke-opacity:1;paint-order:normal;enable-background:new"
       id="rect4557-3"
       width="165"
       height="48"
       x="-0.045501709"
       y="0.07106781"
       ry="9" />
  </g>
  <g
     inkscape:groupmode="layer"
     id="layer5"
     inkscape:label="Background"
     style="display:inline"
     transform="translate(-0.92893219,-0.92893219)">
    <rect
       style="fill:#ffffff;fill-opacity:1;fill-rule:nonzero;stroke:none;stroke-width:8.8994379;stroke-linecap:butt;stroke-linejoin:miter;stroke-miterlimit:4;stroke-dasharray:none;stroke-opacity:1;paint-order:normal"
       id="rect4557"
       width="165"
       height="48"
       x="1"
       y="1" />
  </g>
  <g
     inkscape:groupmode="layer"
     id="layer10"
     inkscape:label="Logo"
     style="opacity:1"
     transform="translate(-0.92893219,-0.92893219)">
    <g
       inkscape:groupmode="layer"
       id="layer1"
       inkscape:label="Links"
       style="display:inline">
      <path
         style="enable-background:accumulate;opacity:1;display:inline;color:#000000;font-style:normal;font-variant:normal;font-weight:normal;font-stretch:normal;font-size:medium;line-height:normal;font-family:sans-serif;font-variant-ligatures:normal;font-variant-position:normal;font-variant-caps:normal;font-variant-numeric:normal;font-variant-alternates:normal;font-feature-settings:normal;text-indent:0;text-align:start;text-decoration:none;text-decoration-line:none;text-decoration-style:solid;text-decoration-color:#000000;letter-spacing:normal;word-spacing:normal;text-transform:none;writing-mode:lr-tb;direction:ltr;text-orientation:mixed;dominant-baseline:auto;baseline-shift:baseline;text-anchor:start;white-space:normal;shape-padding:0;clip-rule:nonzero;overflow:visible;visibility:visible;isolation:auto;mix-blend-mode:normal;color-interpolation:sRGB;color-interpolation-filters:linearRGB;solid-color:#000000;solid-opacity:1;vector-effect:none;fill:#212121;fill-opacity:1;fill-rule:evenodd;stroke:none;stroke-width:6;stroke-linecap:butt;stroke-linejoin:miter;stroke-miterlimit:4;stroke-dasharray:none;stroke-dashoffset:0;stroke-opacity:1;color-rendering:auto;image-rendering:auto;shape-rendering:auto;text-rendering:auto"
         d="m 12,22.140625 v 5.859376 h 6.000001 v -5.859376 z"
         id="path4989-3"
         inkscape:connector-curvature="0" />
      <path
         style="enable-background:accumulate;opacity:1;display:inline;color:#000000;font-style:normal;font-variant:normal;font-weight:normal;font-stretch:normal;font-size:medium;line-height:normal;font-family:sans-serif;font-variant-ligatures:normal;font-variant-position:normal;font-variant-caps:normal;font-variant-numeric:normal;font-variant-alternates:normal;font-feature-settings:normal;text-indent:0;text-align:start;text-decoration:none;text-decoration-line:none;text-decoration-style:solid;text-decoration-color:#000000;letter-spacing:normal;word-spacing:normal;text-transform:none;writing-mode:lr-tb;direction:ltr;text-orientation:mixed;dominant-baseline:auto;baseline-shift:baseline;text-anchor:start;white-space:normal;shape-padding:0;clip-rule:nonzero;overflow:visible;visibility:visible;isolation:auto;mix-blend-mode:normal;color-interpolation:sRGB;color-interpolation-filters:linearRGB;solid-color:#000000;solid-opacity:1;vector-effect:none;fill:#427819;fill-opacity:1;fill-rule:evenodd;stroke:none;stroke-width:8;stroke-linecap:butt;stroke-linejoin:miter;stroke-miterlimit:4;stroke-dasharray:none;stroke-dashoffset:0;stroke-opacity:1;color-rendering:auto;image-rendering:auto;shape-rendering:auto;text-rendering:auto"
         d="m 22.828125,17.242188 -5.656249,5.656249 9.999999,10 5.65625,-5.65625 z"
         id="path4993-6"
         inkscape:connector-curvature="0" />
      <path
         style="enable-background:accumulate;opacity:1;display:inline;color:#000000;font-style:normal;font-variant:normal;font-weight:normal;font-stretch:normal;font-size:medium;line-height:normal;font-family:sans-serif;font-variant-ligatures:normal;font-variant-position:normal;font-variant-caps:normal;font-variant-numeric:normal;font-variant-alternates:normal;font-feature-settings:normal;text-indent:0;text-align:start;text-decoration:none;text-decoration-line:none;text-decoration-style:solid;text-decoration-color:#000000;letter-spacing:normal;word-spacing:normal;text-transform:none;writing-mode:lr-tb;direction:ltr;text-orientation:mixed;dominant-baseline:auto;baseline-shift:baseline;text-anchor:start;white-space:normal;shape-padding:0;clip-rule:nonzero;overflow:visible;visibility:visible;isolation:auto;mix-blend-mode:normal;color-interpolation:sRGB;color-interpolation-filters:linearRGB;solid-color:#000000;solid-opacity:1;vector-effect:none;fill:#212121;fill-opacity:1;fill-rule:evenodd;stroke:none;stroke-width:6;stroke-linecap:butt;stroke-linejoin:miter;stroke-miterlimit:4;stroke-dasharray:none;stroke-dashoffset:0;stroke-opacity:1;color-rendering:auto;image-rendering:auto;shape-rendering:auto;text-rendering:auto"
         d="m 32,22.140625 v 5.859376 h 6 v -5.859376 z"
         id="path4995-7"
         inkscape:connector-curvature="0" />
    </g>
    <g
       inkscape:groupmode="layer"
       id="layer2"
       inkscape:label="Nodes"
       style="display:inline">
      <path
         style="enable-background:accumulate;opacity:1;display:inline;color:#000000;font-style:normal;font-variant:normal;font-weight:normal;font-stretch:normal;font-size:medium;line-height:normal;font-family:sans-serif;font-variant-ligatures:normal;font-variant-position:normal;font-variant-caps:normal;font-variant-numeric:normal;font-variant-alternates:normal;font-feature-settings:normal;text-indent:0;text-align:start;text-decoration:none;text-decoration-line:none;text-decoration-style:solid;text-decoration-color:#000000;letter-spacing:normal;word-spacing:normal;text-transform:none;writing-mode:lr-tb;direction:ltr;text-orientation:mixed;dominant-baseline:auto;baseline-shift:baseline;text-anchor:start;white-space:normal;shape-padding:0;clip-rule:nonzero;overflow:visible;visibility:visible;isolation:auto;mix-blend-mode:normal;color-interpolation:sRGB;color-interpolation-filters:linearRGB;solid-color:#000000;solid-opacity:1;vector-effect:none;fill:#212121;fill-opacity:1;fill-rule:nonzero;stroke:none;stroke-width:4;stroke-linecap:butt;stroke-linejoin:miter;stroke-miterlimit:4;stroke-dasharray:none;stroke-dashoffset:0;stroke-opacity:1;paint-order:normal;color-rendering:auto;image-rendering:auto;shape-rendering:auto;text-rendering:auto"
         d="m 15,6 c -2.400085,0 -4.716946,0.959133 -6.414062,2.65625 -1.697117,1.697116 -2.65625,4.013977 -2.65625,6.414062 0,2.400086 0.959133,4.716947 2.65625,6.414063 1.697116,1.697116 4.013977,2.65625 6.414062,2.65625 2.400086,0 4.716947,-0.959134 6.414063,-2.65625 1.697116,-1.697116 2.65625,-4.013977 2.65625,-6.414063 0,-2.400085 -0.959134,-4.716946 -2.65625,-6.414062 C 19.716947,6.959133 17.400086,6 15,6 Z m 0,4 c 1.302317,0 2.665061,0.563497 3.585938,1.484374 0.920878,0.920878 1.484374,2.283621 1.484374,3.585938 0,1.302317 -0.563497,2.665061 -1.484374,3.585938 -0.920877,0.920878 -2.283621,1.484375 -3.585938,1.484375 -1.302317,0 -2.66506,-0.563497 -3.585938,-1.484374 -0.920877,-0.920878 -1.484374,-2.283622 -1.484374,-3.585939 0,-1.302317 0.563497,-2.66506 1.484374,-3.585938 C 12.33494,10.563497 13.697683,10 15,10 Z"
         id="path4971-5"
         inkscape:connector-curvature="0" />
      <path
         style="enable-background:accumulate;opacity:1;display:inline;color:#000000;font-style:normal;font-variant:normal;font-weight:normal;font-stretch:normal;font-size:medium;line-height:normal;font-family:sans-serif;font-variant-ligatures:normal;font-variant-position:normal;font-variant-caps:normal;font-variant-numeric:normal;font-variant-alternates:normal;font-feature-settings:normal;text-indent:0;text-align:start;text-decoration:none;text-decoration-line:none;text-decoration-style:solid;text-decoration-color:#000000;letter-spacing:normal;word-spacing:normal;text-transform:none;writing-mode:lr-tb;direction:ltr;text-orientation:mixed;dominant-baseline:auto;baseline-shift:baseline;text-anchor:start;white-space:normal;shape-padding:0;clip-rule:nonzero;overflow:visible;visibility:visible;isolation:auto;mix-blend-mode:normal;color-interpolation:sRGB;color-interpolation-filters:linearRGB;solid-color:#000000;solid-opacity:1;vector-effect:none;fill:#212121;fill-opacity:1;fill-rule:nonzero;stroke:none;stroke-width:3;stroke-linecap:butt;stroke-linejoin:miter;stroke-miterlimit:4;stroke-dasharray:none;stroke-dashoffset:0;stroke-opacity:1;color-rendering:auto;image-rendering:auto;shape-rendering:auto;text-rendering:auto"
         d="m 15,26.5 c -2.262864,0 -4.46046,0.909678 -6.060547,2.509765 -1.600086,1.600087 -2.509765,3.797683 -2.509765,6.060547 0,2.262864 0.909679,4.46046 2.509765,6.060547 1.600087,1.600088 3.797683,2.509766 6.060547,2.509766 2.262865,0 4.460461,-0.909678 6.060548,-2.509766 1.600087,-1.600087 2.509765,-3.797683 2.509765,-6.060547 0,-2.262864 -0.909678,-4.46046 -2.509765,-6.060547 C 19.460461,27.409678 17.262865,26.5 15,26.5 Z m 0,3 c 1.439538,0 2.921546,0.612952 3.939454,1.630859 1.017907,1.017907 1.630859,2.499915 1.630859,3.939453 0,1.439538 -0.612952,2.921546 -1.630859,3.939453 -1.017908,1.017908 -2.499916,1.63086 -3.939454,1.63086 -1.439538,0 -2.921546,-0.612952 -3.939453,-1.63086 -1.017907,-1.017907 -1.630859,-2.499915 -1.630859,-3.939453 0,-1.439538 0.612952,-2.921546 1.630859,-3.939453 C 12.078454,30.112952 13.560462,29.5 15,29.5 Z"
         id="path4975-3"
         inkscape:connector-curvature="0" />
      <path
         style="enable-background:accumulate;opacity:1;display:inline;color:#000000;font-style:normal;font-variant:normal;font-weight:normal;font-stretch:normal;font-size:medium;line-height:normal;font-family:sans-serif;font-variant-ligatures:normal;font-variant-position:normal;font-variant-caps:normal;font-variant-numeric:normal;font-variant-alternates:normal;font-feature-settings:normal;text-indent:0;text-align:start;text-decoration:none;text-decoration-line:none;text-decoration-style:solid;text-decoration-color:#000000;letter-spacing:normal;word-spacing:normal;text-transform:none;writing-mode:lr-tb;direction:ltr;text-orientation:mixed;dominant-baseline:auto;baseline-shift:baseline;text-anchor:start;white-space:normal;shape-padding:0;clip-rule:nonzero;overflow:visible;visibility:visible;isolation:auto;mix-blend-mode:normal;color-interpolation:sRGB;color-interpolation-filters:linearRGB;solid-color:#000000;solid-opacity:1;vector-effect:none;fill:#212121;fill-opacity:1;fill-rule:nonzero;stroke:none;stroke-width:3;stroke-linecap:butt;stroke-linejoin:miter;stroke-miterlimit:4;stroke-dasharray:none;stroke-dashoffset:0;stroke-opacity:1;color-rendering:auto;image-rendering:auto;shape-rendering:auto;text-rendering:auto"
         d="m 35,6.5 c -2.262864,0 -4.46046,0.909679 -6.060547,2.509765 -1.600087,1.600087 -2.509765,3.797683 -2.509765,6.060547 0,2.262865 0.909678,4.460461 2.509765,6.060548 1.600087,1.600086 3.797683,2.509765 6.060547,2.509765 2.262864,0 4.46046,-0.909678 6.060547,-2.509765 1.600088,-1.600087 2.509766,-3.797683 2.509766,-6.060548 0,-2.262864 -0.909678,-4.46046 -2.509766,-6.060547 C 39.46046,7.409679 37.262864,6.5 35,6.5 Z m 0,3 c 1.439538,0 2.921546,0.612952 3.939453,1.630859 1.017908,1.017907 1.63086,2.499915 1.63086,3.939453 0,1.439538 -0.612952,2.921546 -1.63086,3.939454 -1.017907,1.017907 -2.499915,1.630859 -3.939453,1.630859 -1.439538,0 -2.921546,-0.612952 -3.939453,-1.630859 -1.017907,-1.017908 -1.630859,-2.499916 -1.630859,-3.939454 0,-1.439538 0.612952,-2.921546 1.630859,-3.939453 C 32.078454,10.112952 33.560462,9.5 35,9.5 Z"
         id="path4979-5"
         inkscape:connector-curvature="0" />
      <path
         style="enable-background:accumulate;opacity:1;display:inline;color:#000000;font-style:normal;font-variant:normal;font-weight:normal;font-stretch:normal;font-size:medium;line-height:normal;font-family:sans-serif;font-variant-ligatures:normal;font-variant-position:normal;font-variant-caps:normal;font-variant-numeric:normal;font-variant-alternates:normal;font-feature-settings:normal;text-indent:0;text-align:start;text-decoration:none;text-decoration-line:none;text-decoration-style:solid;text-decoration-color:#000000;letter-spacing:normal;word-spacing:normal;text-transform:none;writing-mode:lr-tb;direction:ltr;text-orientation:mixed;dominant-baseline:auto;baseline-shift:baseline;text-anchor:start;white-space:normal;shape-padding:0;clip-rule:nonzero;overflow:visible;visibility:visible;isolation:auto;mix-blend-mode:normal;color-interpolation:sRGB;color-interpolation-filters:linearRGB;solid-color:#000000;solid-opacity:1;vector-effect:none;fill:#212121;fill-opacity:1;fill-rule:nonzero;stroke:none;stroke-width:4;stroke-linecap:butt;stroke-linejoin:miter;stroke-miterlimit:4;stroke-dasharray:none;stroke-dashoffset:0;stroke-opacity:1;color-rendering:auto;image-rendering:auto;shape-rendering:auto;text-rendering:auto"
         d="m 35,26 c -2.400084,0 -4.716946,0.959133 -6.414062,2.65625 -1.697117,1.697116 -2.65625,4.013977 -2.65625,6.414062 0,2.400085 0.959133,4.716946 2.65625,6.414063 1.697116,1.697116 4.013977,2.65625 6.414062,2.65625 2.400085,0 4.716946,-0.959134 6.414063,-2.65625 1.697116,-1.697117 2.65625,-4.013977 2.65625,-6.414063 0,-2.400084 -0.959134,-4.716946 -2.65625,-6.414062 C 39.716946,26.959133 37.400085,26 35,26 Z m 0,4 c 1.302318,0 2.66506,0.563497 3.585938,1.484374 0.920877,0.920878 1.484375,2.283621 1.484375,3.585938 0,1.302318 -0.563497,2.66506 -1.484375,3.585938 -0.920878,0.920878 -2.28362,1.484375 -3.585938,1.484375 -1.302317,0 -2.665059,-0.563497 -3.585937,-1.484375 -0.920878,-0.920878 -1.484375,-2.28362 -1.484375,-3.585938 0,-1.302317 0.563497,-2.665059 1.484374,-3.585937 C 32.334941,30.563497 33.697683,30 35,30 Z"
         id="path4983-6"
         inkscape:connector-curvature="0" />
      <path
         style="enable-background:new;opacity:1;display:inline;fill:#427819;fill-opacity:1;stroke:#427819;stroke-width:0.42010105px;stroke-linecap:butt;stroke-linejoin:miter;stroke-opacity:1"
         d="m 13,13 c 0.549911,-0.549911 1.322814,-0.870058 2.100506,-0.870058 0.777691,0 1.550594,0.320147 2.100505,0.870058 0.549911,0.549911 0.870058,1.322814 0.870058,2.100505 0,0.777692 -0.320147,1.550595 -0.870058,2.100506 -0.549911,0.549911 -1.322814,0.870058 -2.100505,0.870058 -0.777692,0 -1.550595,-0.320147 -2.100506,-0.870058 C 12.450089,16.6511 12.129942,15.878197 12.129942,15.100505 12.129942,14.322814 12.450089,13.549911 13,13 Z"
         id="path4971-2"
         inkscape:connector-curvature="0"
         inkscape:path-effect="#path-effect4973-1"
         inkscape:original-d="m 13,13 c -4.19e-4,-1.399917 2.801094,-4.2e-4 4.201011,0 1.399916,4.2e-4 4.2e-4,2.800253 0,4.201011 -4.2e-4,1.400756 -2.800253,-4.21e-4 -4.201011,0 C 11.599243,17.20143 13.00042,14.399916 13,13 Z" />
      <path
         style="enable-background:new;opacity:1;display:inline;fill:#212121;fill-opacity:1;stroke:#212121;stroke-width:0.42010105px;stroke-linecap:butt;stroke-linejoin:miter;stroke-opacity:1"
         d="m 13,33 c 0.549911,-0.549911 1.322814,-0.870058 2.100506,-0.870058 0.777691,0 1.550594,0.320147 2.100505,0.870058 0.549911,0.549911 0.870058,1.322814 0.870058,2.100505 0,0.777692 -0.320147,1.550595 -0.870058,2.100506 -0.549911,0.549911 -1.322814,0.870058 -2.100505,0.870058 -0.777692,0 -1.550595,-0.320147 -2.100506,-0.870058 C 12.450089,36.6511 12.129942,35.878197 12.129942,35.100505 12.129942,34.322814 12.450089,33.549911 13,33 Z"
         id="path4971-2-0"
         inkscape:connector-curvature="0"
         inkscape:path-effect="#path-effect4973-1-7"
         inkscape:original-d="m 13,33 c -4.19e-4,-1.399917 2.801094,-4.2e-4 4.201011,0 1.399916,4.2e-4 4.2e-4,2.800253 0,4.201011 -4.2e-4,1.400756 -2.800253,-4.21e-4 -4.201011,0 C 11.599243,37.20143 13.00042,34.399916 13,33 Z" />
      <path
         style="enable-background:new;opacity:1;display:inline;fill:#427819;fill-opacity:1;stroke:#427819;stroke-width:0.41999999;stroke-linecap:butt;stroke-linejoin:miter;stroke-miterlimit:4;stroke-dasharray:none;stroke-opacity:1"
         d="m 33,33 c 0.549911,-0.549911 1.322814,-0.870058 2.100506,-0.870058 0.777691,0 1.550594,0.320147 2.100505,0.870058 0.549911,0.549911 0.870058,1.322814 0.870058,2.100505 0,0.777692 -0.320147,1.550595 -0.870058,2.100506 -0.549911,0.549911 -1.322814,0.870058 -2.100505,0.870058 -0.777692,0 -1.550595,-0.320147 -2.100506,-0.870058 C 32.450089,36.6511 32.129942,35.878197 32.129942,35.100505 32.129942,34.322814 32.450089,33.549911 33,33 Z"
         id="path4971-2-0-3"
         inkscape:connector-curvature="0"
         inkscape:path-effect="#path-effect4973-1-7-9"
         inkscape:original-d="m 33,33 c -4.19e-4,-1.399917 2.801094,-4.2e-4 4.201011,0 1.399916,4.2e-4 4.2e-4,2.800253 0,4.201011 -4.2e-4,1.400756 -2.800253,-4.21e-4 -4.201011,0 C 31.599243,37.20143 33.00042,34.399916 33,33 Z" />
      <path
         style="enable-background:new;opacity:1;display:inline;fill:#212121;fill-opacity:1;stroke:#212121;stroke-width:0.42010105px;stroke-linecap:butt;stroke-linejoin:miter;stroke-opacity:1"
         d="m 33,13 c 0.549911,-0.549911 1.322814,-0.870058 2.100506,-0.870058 0.777691,0 1.550594,0.320147 2.100505,0.870058 0.549911,0.549911 0.870058,1.322814 0.870058,2.100505 0,0.777692 -0.320147,1.550595 -0.870058,2.100506 -0.549911,0.549911 -1.322814,0.870058 -2.100505,0.870058 -0.777692,0 -1.550595,-0.320147 -2.100506,-0.870058 C 32.450089,16.6511 32.129942,15.878197 32.129942,15.100505 32.129942,14.322814 32.450089,13.549911 33,13 Z"
         id="path4971-2-0-3-0"
         inkscape:connector-curvature="0"
         inkscape:path-effect="#path-effect4973-1-7-9-6"
         inkscape:original-d="m 33,13 c -4.19e-4,-1.399917 2.801094,-4.2e-4 4.201011,0 1.399916,4.2e-4 4.2e-4,2.800253 0,4.201011 -4.2e-4,1.400756 -2.800253,-4.21e-4 -4.201011,0 C 31.599243,17.20143 33.00042,14.399916 33,13 Z" />
    </g>
  </g>
  <g
     inkscape:groupmode="layer"
     id="layer6"
     inkscape:label="Text"
     style="display:inline"
     transform="translate(-0.92893219,-0.92893219)">
    <text
       xml:space="preserve"
       style="font-style:normal;font-weight:normal;font-size:40px;line-height:1.25;font-family:sans-serif;letter-spacing:0px;word-spacing:0px;display:inline;opacity:1;fill:#000000;fill-opacity:1;stroke:none;enable-background:new"
       x="105.94247"
       y="35.784012"
       id="text3742"><tspan
         sodipodi:role="line"
         id="tspan3740"
         x="105.94247"
         y="35.784012"
         style="font-style:normal;font-variant:normal;font-weight:bold;font-stretch:normal;font-size:37.33333206px;font-family:FreeMono;-inkscape-font-specification:'FreeMono Bold';text-align:center;text-anchor:middle;fill:#212121;fill-opacity:1">ntrrg</tspan></text>
  </g>
</svg>
