<?xml version="1.0" encoding="UTF-8" standalone="no"?>
<svg
   xmlns:dc="http://purl.org/dc/elements/1.1/"
   xmlns:cc="http://creativecommons.org/ns#"
   xmlns:rdf="http://www.w3.org/1999/02/22-rdf-syntax-ns#"
   xmlns:svg="http://www.w3.org/2000/svg"
   xmlns="http://www.w3.org/2000/svg"
   xmlns:sodipodi="http://sodipodi.sourceforge.net/DTD/sodipodi-0.dtd"
   xmlns:inkscape="http://www.inkscape.org/namespaces/inkscape"
   version="1.1"
   id="svg2"
   height="50"
   width="50"
   sodipodi:docname="logo.svg"
   inkscape:version="0.92.4 (5da689c313, 2019-01-14)"
   inkscape:export-filename="/media/ntrrg/NtFlash/srv/storage/data/ntrrg/Design/brand-design/dist/logo-bg-circle.png"
   inkscape:export-xdpi="1152"
   inkscape:export-ydpi="1152"
   enable-background="new">
  <sodipodi:namedview
     pagecolor="#ffffff"
     bordercolor="#666666"
     borderopacity="1"
     objecttolerance="10"
     gridtolerance="10"
     guidetolerance="10"
     inkscape:pageopacity="0"
     inkscape:pageshadow="2"
     inkscape:window-width="1366"
     inkscape:window-height="706"
     id="namedview10"
     showgrid="true"
     inkscape:zoom="11.313708"
     inkscape:cx="-3.1792976"
     inkscape:cy="28.974081"
     inkscape:window-x="0"
     inkscape:window-y="30"
     inkscape:window-maximized="1"
     inkscape:current-layer="layer7"
     inkscape:measure-start="36,37"
     inkscape:measure-end="36,24"
     showguides="true">
    <inkscape:grid
       type="xygrid"
       id="grid1011" />
  </sodipodi:namedview>
  <defs
     id="defs4">
    <inkscape:path-effect
       effect="spiro"
       id="path-effect4985"
       is_visible="true" />
    <inkscape:path-effect
       effect="spiro"
       id="path-effect4981"
       is_visible="true" />
    <inkscape:path-effect
       effect="spiro"
       id="path-effect4977"
       is_visible="true" />
    <inkscape:path-effect
       effect="spiro"
       id="path-effect4973"
       is_visible="true" />
    <inkscape:path-effect
       effect="spiro"
       id="path-effect4945"
       is_visible="true" />
    <inkscape:path-effect
       effect="spiro"
       id="path-effect4941"
       is_visible="true" />
    <inkscape:path-effect
       effect="spiro"
       id="path-effect4937"
       is_visible="true" />
    <inkscape:path-effect
       effect="spiro"
       id="path-effect4933"
       is_visible="true" />
    <inkscape:path-effect
       effect="spiro"
       id="path-effect4926"
       is_visible="true" />
    <inkscape:path-effect
       effect="spiro"
       id="path-effect4922"
       is_visible="true" />
    <inkscape:path-effect
       effect="spiro"
       id="path-effect4918"
       is_visible="true" />
    <inkscape:path-effect
       effect="bspline"
       id="path-effect4914"
       is_visible="true"
       weight="33.333333"
       steps="2"
       helper_size="0"
       apply_no_weight="true"
       apply_with_weight="true"
       only_selected="false" />
    <inkscape:path-effect
       effect="spiro"
       id="path-effect4910"
       is_visible="true" />
    <inkscape:path-effect
       effect="skeletal"
       id="path-effect4906"
       is_visible="true"
       pattern="M 0,5 C 0,2.24 2.24,0 5,0 7.76,0 10,2.24 10,5 10,7.76 7.76,10 5,10 2.24,10 0,7.76 0,5 Z"
       copytype="single_stretched"
       prop_scale="1"
       scale_y_rel="false"
       spacing="0"
       normal_offset="0"
       tang_offset="0"
       prop_units="false"
       vertical_pattern="false"
       fuse_tolerance="0" />
    <inkscape:path-effect
       effect="spiro"
       id="path-effect4904"
       is_visible="true" />
    <marker
       id="Arrow2Sstart"
       inkscape:isstock="true"
       inkscape:stockid="Arrow2Sstart"
       orient="auto"
       refX="0"
       refY="0"
       style="overflow:visible">
      <path
         d="M 8.72,4.03 -2.21,0.02 8.72,-4 c -1.75,2.37 -1.74,5.62 0,8.03 z"
         id="Arrow2SstartPath"
         style="fill:#000000;fill-opacity:1;stroke:#000000;stroke-opacity:1"
         transform="matrix(0.3,0,0,0.3,-0.69,0)"
         inkscape:connector-curvature="0" />
    </marker>
    <marker
       id="Arrow2Send"
       inkscape:isstock="true"
       inkscape:stockid="Arrow2Send"
       orient="auto"
       refX="0"
       refY="0"
       style="overflow:visible">
      <path
         d="M 8.72,4.03 -2.21,0.02 8.72,-4 c -1.75,2.37 -1.74,5.62 0,8.03 z"
         id="Arrow2SendPath"
         style="fill:#000000;fill-opacity:1;stroke:#000000;stroke-opacity:1"
         transform="matrix(-0.3,0,0,-0.3,0.69,0)"
         inkscape:connector-curvature="0" />
    </marker>
    <inkscape:path-effect
       effect="spiro"
       id="path-effect4973-1"
       is_visible="true" />
    <inkscape:path-effect
       effect="spiro"
       id="path-effect4973-1-7"
       is_visible="true" />
    <inkscape:path-effect
       effect="spiro"
       id="path-effect4973-1-7-9"
       is_visible="true" />
    <inkscape:path-effect
       effect="spiro"
       id="path-effect4973-1-7-9-6"
       is_visible="true" />
  </defs>
  <metadata
     id="metadata7">
    <rdf:RDF>
      <cc:Work
         rdf:about="">
        <dc:format>image/svg+xml</dc:format>
        <dc:type
           rdf:resource="http://purl.org/dc/dcmitype/StillImage" />
        <dc:title />
      </cc:Work>
    </rdf:RDF>
  </metadata>
  <g
     style="display:inline"
     id="layer3"
     transform="translate(0,15.866665)" />
  <g
     inkscape:groupmode="layer"
     id="layer8"
     inkscape:label="Background (circle)"
     style="display:none">
    <circle
       style="fill:#ffffff;fill-opacity:1;stroke:#ffffff;stroke-width:1.11111116;stroke-linejoin:round;stroke-miterlimit:10;stroke-dasharray:none;stroke-opacity:1"
       id="path883"
       cx="25.000002"
       cy="24.999998"
       r="24.444445" />
  </g>
  <g
     inkscape:groupmode="layer"
     id="layer7"
     inkscape:label="Background (round)"
     style="display:none">
    <path
       style="fill:#ffffff;fill-opacity:1;stroke:#ffffff;stroke-width:1;stroke-linecap:butt;stroke-linejoin:round;stroke-miterlimit:10;stroke-dasharray:none;stroke-opacity:1"
       d="M 10,3 H 40.0625 C 45,3 47,5 47,10.0625 V 40.012117 C 47,45 45,47 39.907339,47 H 10 C 5,47 3,45 3,39.96875 V 10 C 3,5 5,3 10,3 Z"
       id="path881"
       inkscape:connector-curvature="0"
       sodipodi:nodetypes="ccccccccc" />
  </g>
  <g
     inkscape:groupmode="layer"
     id="layer5"
     inkscape:label="Background"
     style="display:inline">
    <rect
       style="fill:#ffffff;fill-opacity:1;fill-rule:nonzero;stroke:none;stroke-width:5;stroke-linecap:butt;stroke-linejoin:miter;stroke-miterlimit:4;stroke-dasharray:none;stroke-opacity:1;paint-order:normal"
       id="rect4557"
       width="50"
       height="50"
       x="0"
       y="0" />
  </g>
  <g
     inkscape:groupmode="layer"
     id="layer10"
     inkscape:label="Logo"
     style="opacity:1">
    <g
       inkscape:groupmode="layer"
       id="layer1"
       inkscape:label="Links"
       style="display:inline">
      <path
         style="color:#000000;font-style:normal;font-variant:normal;font-weight:normal;font-stretch:normal;font-size:medium;line-height:normal;font-family:sans-serif;font-variant-ligatures:normal;font-variant-position:normal;font-variant-caps:normal;font-variant-numeric:normal;font-variant-alternates:normal;font-feature-settings:normal;text-indent:0;text-align:start;text-decoration:none;text-decoration-line:none;text-decoration-style:solid;text-decoration-color:#000000;letter-spacing:normal;word-spacing:normal;text-transform:none;writing-mode:lr-tb;direction:ltr;text-orientation:mixed;dominant-baseline:auto;baseline-shift:baseline;text-anchor:start;white-space:normal;shape-padding:0;clip-rule:nonzero;display:inline;overflow:visible;visibility:visible;opacity:1;isolation:auto;mix-blend-mode:normal;color-interpolation:sRGB;color-interpolation-filters:linearRGB;solid-color:#000000;solid-opacity:1;vector-effect:none;fill:#212121;fill-opacity:1;fill-rule:evenodd;stroke:none;stroke-width:6;stroke-linecap:butt;stroke-linejoin:miter;stroke-miterlimit:4;stroke-dasharray:none;stroke-dashoffset:0;stroke-opacity:1;color-rendering:auto;image-rendering:auto;shape-rendering:auto;text-rendering:auto;enable-background:accumulate"
         d="m 12,22.070312 v 5.859376 h 6 v -5.859376 z"
         id="path4989"
         inkscape:connector-curvature="0" />
      <path
         style="color:#000000;font-style:normal;font-variant:normal;font-weight:normal;font-stretch:normal;font-size:medium;line-height:normal;font-family:sans-serif;font-variant-ligatures:normal;font-variant-position:normal;font-variant-caps:normal;font-variant-numeric:normal;font-variant-alternates:normal;font-feature-settings:normal;text-indent:0;text-align:start;text-decoration:none;text-decoration-line:none;text-decoration-style:solid;text-decoration-color:#000000;letter-spacing:normal;word-spacing:normal;text-transform:none;writing-mode:lr-tb;direction:ltr;text-orientation:mixed;dominant-baseline:auto;baseline-shift:baseline;text-anchor:start;white-space:normal;shape-padding:0;clip-rule:nonzero;display:inline;overflow:visible;visibility:visible;opacity:1;isolation:auto;mix-blend-mode:normal;color-interpolation:sRGB;color-interpolation-filters:linearRGB;solid-color:#000000;solid-opacity:1;vector-effect:none;fill:#427819;fill-opacity:1;fill-rule:evenodd;stroke:none;stroke-width:8;stroke-linecap:butt;stroke-linejoin:miter;stroke-miterlimit:4;stroke-dasharray:none;stroke-dashoffset:0;stroke-opacity:1;color-rendering:auto;image-rendering:auto;shape-rendering:auto;text-rendering:auto;enable-background:accumulate"
         d="m 22.828125,17.171875 -5.65625,5.65625 10,10 5.65625,-5.65625 z"
         id="path4993"
         inkscape:connector-curvature="0" />
      <path
         style="color:#000000;font-style:normal;font-variant:normal;font-weight:normal;font-stretch:normal;font-size:medium;line-height:normal;font-family:sans-serif;font-variant-ligatures:normal;font-variant-position:normal;font-variant-caps:normal;font-variant-numeric:normal;font-variant-alternates:normal;font-feature-settings:normal;text-indent:0;text-align:start;text-decoration:none;text-decoration-line:none;text-decoration-style:solid;text-decoration-color:#000000;letter-spacing:normal;word-spacing:normal;text-transform:none;writing-mode:lr-tb;direction:ltr;text-orientation:mixed;dominant-baseline:auto;baseline-shift:baseline;text-anchor:start;white-space:normal;shape-padding:0;clip-rule:nonzero;display:inline;overflow:visible;visibility:visible;opacity:1;isolation:auto;mix-blend-mode:normal;color-interpolation:sRGB;color-interpolation-filters:linearRGB;solid-color:#000000;solid-opacity:1;vector-effect:none;fill:#212121;fill-opacity:1;fill-rule:evenodd;stroke:none;stroke-width:6;stroke-linecap:butt;stroke-linejoin:miter;stroke-miterlimit:4;stroke-dasharray:none;stroke-dashoffset:0;stroke-opacity:1;color-rendering:auto;image-rendering:auto;shape-rendering:auto;text-rendering:auto;enable-background:accumulate"
         d="m 32,22.070312 v 5.859376 h 6 v -5.859376 z"
         id="path4995"
         inkscape:connector-curvature="0" />
    </g>
    <g
       inkscape:groupmode="layer"
       id="layer2"
       inkscape:label="Nodes"
       style="display:inline">
      <path
         style="color:#000000;font-style:normal;font-variant:normal;font-weight:normal;font-stretch:normal;font-size:medium;line-height:normal;font-family:sans-serif;font-variant-ligatures:normal;font-variant-position:normal;font-variant-caps:normal;font-variant-numeric:normal;font-variant-alternates:normal;font-feature-settings:normal;text-indent:0;text-align:start;text-decoration:none;text-decoration-line:none;text-decoration-style:solid;text-decoration-color:#000000;letter-spacing:normal;word-spacing:normal;text-transform:none;writing-mode:lr-tb;direction:ltr;text-orientation:mixed;dominant-baseline:auto;baseline-shift:baseline;text-anchor:start;white-space:normal;shape-padding:0;clip-rule:nonzero;display:inline;overflow:visible;visibility:visible;opacity:1;isolation:auto;mix-blend-mode:normal;color-interpolation:sRGB;color-interpolation-filters:linearRGB;solid-color:#000000;solid-opacity:1;vector-effect:none;fill:#212121;fill-opacity:1;fill-rule:nonzero;stroke:none;stroke-width:4;stroke-linecap:butt;stroke-linejoin:miter;stroke-miterlimit:4;stroke-dasharray:none;stroke-dashoffset:0;stroke-opacity:1;paint-order:normal;color-rendering:auto;image-rendering:auto;shape-rendering:auto;text-rendering:auto;enable-background:accumulate"
         d="m 15,5.9296875 c -2.400085,0 -4.716946,0.9591336 -6.4140625,2.65625 C 6.8888211,10.283054 5.9296875,12.599915 5.9296875,15 c 0,2.400085 0.9591336,4.716946 2.65625,6.414062 1.6971165,1.697117 4.0139775,2.65625 6.4140625,2.65625 2.400085,0 4.716946,-0.959133 6.414062,-2.65625 1.697117,-1.697116 2.65625,-4.013977 2.65625,-6.414062 0,-2.400085 -0.959133,-4.716946 -2.65625,-6.4140625 C 19.716946,6.8888211 17.400085,5.9296875 15,5.9296875 Z m 0,4 c 1.302317,0 2.66506,0.5634975 3.585938,1.4843745 0.920877,0.920878 1.484374,2.283621 1.484374,3.585938 0,1.302317 -0.563497,2.66506 -1.484374,3.585938 C 17.66506,19.506815 16.302317,20.070312 15,20.070312 c -1.302317,0 -2.66506,-0.563497 -3.585938,-1.484374 C 10.493185,17.66506 9.9296875,16.302317 9.9296875,15 c 0,-1.302317 0.5634975,-2.66506 1.4843745,-3.585938 C 12.33494,10.493185 13.697683,9.9296875 15,9.9296875 Z"
         id="path4971"
         inkscape:connector-curvature="0" />
      <path
         style="color:#000000;font-style:normal;font-variant:normal;font-weight:normal;font-stretch:normal;font-size:medium;line-height:normal;font-family:sans-serif;font-variant-ligatures:normal;font-variant-position:normal;font-variant-caps:normal;font-variant-numeric:normal;font-variant-alternates:normal;font-feature-settings:normal;text-indent:0;text-align:start;text-decoration:none;text-decoration-line:none;text-decoration-style:solid;text-decoration-color:#000000;letter-spacing:normal;word-spacing:normal;text-transform:none;writing-mode:lr-tb;direction:ltr;text-orientation:mixed;dominant-baseline:auto;baseline-shift:baseline;text-anchor:start;white-space:normal;shape-padding:0;clip-rule:nonzero;display:inline;overflow:visible;visibility:visible;opacity:1;isolation:auto;mix-blend-mode:normal;color-interpolation:sRGB;color-interpolation-filters:linearRGB;solid-color:#000000;solid-opacity:1;vector-effect:none;fill:#212121;fill-opacity:1;fill-rule:nonzero;stroke:none;stroke-width:3;stroke-linecap:butt;stroke-linejoin:miter;stroke-miterlimit:4;stroke-dasharray:none;stroke-dashoffset:0;stroke-opacity:1;color-rendering:auto;image-rendering:auto;shape-rendering:auto;text-rendering:auto;enable-background:accumulate"
         d="m 15,26.429688 c -2.262864,0 -4.46046,0.909678 -6.0605469,2.509765 C 7.3393666,30.53954 6.4296875,32.737136 6.4296875,35 c 0,2.262864 0.9096791,4.46046 2.5097656,6.060547 C 10.53954,42.660634 12.737136,43.570312 15,43.570312 c 2.262864,0 4.46046,-0.909678 6.060547,-2.509765 C 22.660634,39.46046 23.570312,37.262864 23.570312,35 c 0,-2.262864 -0.909678,-4.46046 -2.509765,-6.060547 C 19.46046,27.339366 17.262864,26.429688 15,26.429688 Z m 0,3 c 1.439538,0 2.921546,0.612952 3.939453,1.630859 1.017907,1.017907 1.630859,2.499915 1.630859,3.939453 0,1.439538 -0.612952,2.921546 -1.630859,3.939453 -1.017907,1.017907 -2.499915,1.63086 -3.939453,1.630859 -1.439538,0 -2.921546,-0.612952 -3.939453,-1.630859 C 10.04264,37.921546 9.4296875,36.439538 9.4296875,35 c 0,-1.439538 0.6129525,-2.921546 1.6308595,-3.939453 C 12.078454,30.04264 13.560462,29.429688 15,29.429688 Z"
         id="path4975"
         inkscape:connector-curvature="0" />
      <path
         style="color:#000000;font-style:normal;font-variant:normal;font-weight:normal;font-stretch:normal;font-size:medium;line-height:normal;font-family:sans-serif;font-variant-ligatures:normal;font-variant-position:normal;font-variant-caps:normal;font-variant-numeric:normal;font-variant-alternates:normal;font-feature-settings:normal;text-indent:0;text-align:start;text-decoration:none;text-decoration-line:none;text-decoration-style:solid;text-decoration-color:#000000;letter-spacing:normal;word-spacing:normal;text-transform:none;writing-mode:lr-tb;direction:ltr;text-orientation:mixed;dominant-baseline:auto;baseline-shift:baseline;text-anchor:start;white-space:normal;shape-padding:0;clip-rule:nonzero;display:inline;overflow:visible;visibility:visible;opacity:1;isolation:auto;mix-blend-mode:normal;color-interpolation:sRGB;color-interpolation-filters:linearRGB;solid-color:#000000;solid-opacity:1;vector-effect:none;fill:#212121;fill-opacity:1;fill-rule:nonzero;stroke:none;stroke-width:3;stroke-linecap:butt;stroke-linejoin:miter;stroke-miterlimit:4;stroke-dasharray:none;stroke-dashoffset:0;stroke-opacity:1;color-rendering:auto;image-rendering:auto;shape-rendering:auto;text-rendering:auto;enable-background:accumulate"
         d="m 35,6.4296875 c -2.262864,0 -4.46046,0.9096791 -6.060547,2.5097656 C 27.339366,10.53954 26.429688,12.737136 26.429688,15 c 0,2.262864 0.909678,4.46046 2.509765,6.060547 1.600087,1.600087 3.797683,2.509765 6.060547,2.509765 2.262864,0 4.46046,-0.909678 6.060547,-2.509765 C 42.660634,19.46046 43.570312,17.262864 43.570312,15 c 0,-2.262864 -0.909678,-4.46046 -2.509765,-6.0605469 C 39.46046,7.3393666 37.262864,6.4296875 35,6.4296875 Z m 0,3 c 1.439538,0 2.921546,0.6129525 3.939453,1.6308595 1.017907,1.017907 1.630859,2.499915 1.630859,3.939453 0,1.439538 -0.612952,2.921546 -1.630859,3.939453 C 37.921546,19.95736 36.439538,20.570312 35,20.570312 c -1.439538,0 -2.921546,-0.612952 -3.939453,-1.630859 C 30.04264,17.921546 29.429687,16.439538 29.429688,15 c 0,-1.439538 0.612952,-2.921546 1.630859,-3.939453 C 32.078454,10.04264 33.560462,9.4296875 35,9.4296875 Z"
         id="path4979"
         inkscape:connector-curvature="0" />
      <path
         style="color:#000000;font-style:normal;font-variant:normal;font-weight:normal;font-stretch:normal;font-size:medium;line-height:normal;font-family:sans-serif;font-variant-ligatures:normal;font-variant-position:normal;font-variant-caps:normal;font-variant-numeric:normal;font-variant-alternates:normal;font-feature-settings:normal;text-indent:0;text-align:start;text-decoration:none;text-decoration-line:none;text-decoration-style:solid;text-decoration-color:#000000;letter-spacing:normal;word-spacing:normal;text-transform:none;writing-mode:lr-tb;direction:ltr;text-orientation:mixed;dominant-baseline:auto;baseline-shift:baseline;text-anchor:start;white-space:normal;shape-padding:0;clip-rule:nonzero;display:inline;overflow:visible;visibility:visible;opacity:1;isolation:auto;mix-blend-mode:normal;color-interpolation:sRGB;color-interpolation-filters:linearRGB;solid-color:#000000;solid-opacity:1;vector-effect:none;fill:#212121;fill-opacity:1;fill-rule:nonzero;stroke:none;stroke-width:4;stroke-linecap:butt;stroke-linejoin:miter;stroke-miterlimit:4;stroke-dasharray:none;stroke-dashoffset:0;stroke-opacity:1;color-rendering:auto;image-rendering:auto;shape-rendering:auto;text-rendering:auto;enable-background:accumulate"
         d="m 35,25.929688 c -2.400085,0 -4.716946,0.959133 -6.414062,2.65625 -1.697117,1.697116 -2.65625,4.013977 -2.65625,6.414062 0,2.400085 0.959133,4.716946 2.65625,6.414062 1.697116,1.697117 4.013977,2.65625 6.414062,2.65625 2.400085,0 4.716946,-0.959133 6.414062,-2.65625 1.697117,-1.697116 2.65625,-4.013977 2.65625,-6.414062 0,-2.400085 -0.959133,-4.716946 -2.65625,-6.414062 C 39.716946,26.888821 37.400085,25.929688 35,25.929688 Z m 0,4 c 1.302317,0 2.66506,0.563497 3.585938,1.484374 0.920877,0.920878 1.484375,2.283621 1.484374,3.585938 0,1.302317 -0.563497,2.66506 -1.484374,3.585938 C 37.66506,39.506815 36.302317,40.070312 35,40.070312 c -1.302317,0 -2.66506,-0.563497 -3.585938,-1.484374 C 30.493185,37.66506 29.929688,36.302317 29.929688,35 c 0,-1.302317 0.563497,-2.66506 1.484374,-3.585938 C 32.33494,30.493185 33.697683,29.929688 35,29.929688 Z"
         id="path4983"
         inkscape:connector-curvature="0" />
      <path
         style="color:#000000;font-style:normal;font-variant:normal;font-weight:normal;font-stretch:normal;font-size:medium;line-height:normal;font-family:sans-serif;font-variant-ligatures:normal;font-variant-position:normal;font-variant-caps:normal;font-variant-numeric:normal;font-variant-alternates:normal;font-feature-settings:normal;text-indent:0;text-align:start;text-decoration:none;text-decoration-line:none;text-decoration-style:solid;text-decoration-color:#000000;letter-spacing:normal;word-spacing:normal;text-transform:none;writing-mode:lr-tb;direction:ltr;text-orientation:mixed;dominant-baseline:auto;baseline-shift:baseline;text-anchor:start;white-space:normal;shape-padding:0;clip-rule:nonzero;display:inline;overflow:visible;visibility:visible;opacity:1;isolation:auto;mix-blend-mode:normal;color-interpolation:sRGB;color-interpolation-filters:linearRGB;solid-color:#000000;solid-opacity:1;vector-effect:none;fill:#427819;fill-opacity:1;fill-rule:nonzero;stroke:none;stroke-width:0.42010105px;stroke-linecap:butt;stroke-linejoin:miter;stroke-miterlimit:4;stroke-dasharray:none;stroke-dashoffset:0;stroke-opacity:1;color-rendering:auto;image-rendering:auto;shape-rendering:auto;text-rendering:auto;enable-background:accumulate"
         d="m 14.999023,11.819336 c -0.835338,0 -1.657373,0.340967 -2.248047,0.93164 -0.590673,0.590674 -0.93164,1.41271 -0.93164,2.248047 0,0.835339 0.340967,1.659327 0.93164,2.25 0.590674,0.590674 1.412709,0.931641 2.248047,0.931641 0.835338,0 1.659327,-0.340967 2.25,-0.931641 0.590674,-0.590673 0.931641,-1.414661 0.931641,-2.25 0,-0.835337 -0.340967,-1.657373 -0.931641,-2.248047 -0.590673,-0.590673 -1.414662,-0.93164 -2.25,-0.93164 z"
         id="path4971-2"
         inkscape:connector-curvature="0"
         sodipodi:nodetypes="scssscsss" />
      <path
         style="color:#000000;font-style:normal;font-variant:normal;font-weight:normal;font-stretch:normal;font-size:medium;line-height:normal;font-family:sans-serif;font-variant-ligatures:normal;font-variant-position:normal;font-variant-caps:normal;font-variant-numeric:normal;font-variant-alternates:normal;font-feature-settings:normal;text-indent:0;text-align:start;text-decoration:none;text-decoration-line:none;text-decoration-style:solid;text-decoration-color:#000000;letter-spacing:normal;word-spacing:normal;text-transform:none;writing-mode:lr-tb;direction:ltr;text-orientation:mixed;dominant-baseline:auto;baseline-shift:baseline;text-anchor:start;white-space:normal;shape-padding:0;clip-rule:nonzero;display:inline;overflow:visible;visibility:visible;opacity:1;isolation:auto;mix-blend-mode:normal;color-interpolation:sRGB;color-interpolation-filters:linearRGB;solid-color:#000000;solid-opacity:1;vector-effect:none;fill:#212121;fill-opacity:1;fill-rule:nonzero;stroke:none;stroke-width:0.42010105px;stroke-linecap:butt;stroke-linejoin:miter;stroke-miterlimit:4;stroke-dasharray:none;stroke-dashoffset:0;stroke-opacity:1;color-rendering:auto;image-rendering:auto;shape-rendering:auto;text-rendering:auto;enable-background:accumulate"
         d="m 14.999023,31.819336 c -0.835338,0 -1.657373,0.340967 -2.248047,0.93164 -0.590673,0.590674 -0.93164,1.41271 -0.93164,2.248047 0,0.835339 0.340967,1.659327 0.93164,2.25 0.590674,0.590674 1.412709,0.931641 2.248047,0.931641 0.835338,0 1.659327,-0.340967 2.25,-0.931641 0.590674,-0.590673 0.931641,-1.414661 0.931641,-2.25 0,-0.835337 -0.340967,-1.657373 -0.931641,-2.248047 -0.590673,-0.590673 -1.414662,-0.93164 -2.25,-0.93164 z"
         id="path4971-2-0"
         inkscape:connector-curvature="0"
         sodipodi:nodetypes="scssscsss" />
      <path
         style="color:#000000;font-style:normal;font-variant:normal;font-weight:normal;font-stretch:normal;font-size:medium;line-height:normal;font-family:sans-serif;font-variant-ligatures:normal;font-variant-position:normal;font-variant-caps:normal;font-variant-numeric:normal;font-variant-alternates:normal;font-feature-settings:normal;text-indent:0;text-align:start;text-decoration:none;text-decoration-line:none;text-decoration-style:solid;text-decoration-color:#000000;letter-spacing:normal;word-spacing:normal;text-transform:none;writing-mode:lr-tb;direction:ltr;text-orientation:mixed;dominant-baseline:auto;baseline-shift:baseline;text-anchor:start;white-space:normal;shape-padding:0;clip-rule:nonzero;display:inline;overflow:visible;visibility:visible;opacity:1;isolation:auto;mix-blend-mode:normal;color-interpolation:sRGB;color-interpolation-filters:linearRGB;solid-color:#000000;solid-opacity:1;vector-effect:none;fill:#427819;fill-opacity:1;fill-rule:nonzero;stroke:none;stroke-width:0.41999999;stroke-linecap:butt;stroke-linejoin:miter;stroke-miterlimit:4;stroke-dasharray:none;stroke-dashoffset:0;stroke-opacity:1;color-rendering:auto;image-rendering:auto;shape-rendering:auto;text-rendering:auto;enable-background:accumulate"
         d="m 34.999023,31.819336 c -0.835324,0 -1.657383,0.340977 -2.248047,0.93164 -0.590663,0.590664 -0.93164,1.412723 -0.93164,2.248047 0,0.835325 0.340977,1.659337 0.93164,2.25 0.590664,0.590664 1.412723,0.931641 2.248047,0.931641 0.835324,0 1.659337,-0.340977 2.25,-0.931641 0.590664,-0.590663 0.931641,-1.414675 0.931641,-2.25 0,-0.835324 -0.340977,-1.657383 -0.931641,-2.248047 -0.590663,-0.590663 -1.414676,-0.93164 -2.25,-0.93164 z"
         id="path4971-2-0-3"
         inkscape:connector-curvature="0"
         sodipodi:nodetypes="scssscsss" />
      <path
         style="color:#000000;font-style:normal;font-variant:normal;font-weight:normal;font-stretch:normal;font-size:medium;line-height:normal;font-family:sans-serif;font-variant-ligatures:normal;font-variant-position:normal;font-variant-caps:normal;font-variant-numeric:normal;font-variant-alternates:normal;font-feature-settings:normal;text-indent:0;text-align:start;text-decoration:none;text-decoration-line:none;text-decoration-style:solid;text-decoration-color:#000000;letter-spacing:normal;word-spacing:normal;text-transform:none;writing-mode:lr-tb;direction:ltr;text-orientation:mixed;dominant-baseline:auto;baseline-shift:baseline;text-anchor:start;white-space:normal;shape-padding:0;clip-rule:nonzero;display:inline;overflow:visible;visibility:visible;opacity:1;isolation:auto;mix-blend-mode:normal;color-interpolation:sRGB;color-interpolation-filters:linearRGB;solid-color:#000000;solid-opacity:1;vector-effect:none;fill:#212121;fill-opacity:1;fill-rule:nonzero;stroke:none;stroke-width:0.42010105px;stroke-linecap:butt;stroke-linejoin:miter;stroke-miterlimit:4;stroke-dasharray:none;stroke-dashoffset:0;stroke-opacity:1;color-rendering:auto;image-rendering:auto;shape-rendering:auto;text-rendering:auto;enable-background:accumulate"
         d="m 34.999023,11.819336 c -0.835338,0 -1.657373,0.340967 -2.248047,0.93164 -0.590673,0.590674 -0.93164,1.41271 -0.93164,2.248047 0,0.835339 0.340967,1.659327 0.93164,2.25 0.590674,0.590674 1.412709,0.931641 2.248047,0.931641 0.835338,0 1.659327,-0.340967 2.25,-0.931641 0.590674,-0.590673 0.931641,-1.414661 0.931641,-2.25 0,-0.835337 -0.340967,-1.657373 -0.931641,-2.248047 -0.590673,-0.590673 -1.414662,-0.93164 -2.25,-0.93164 z"
         id="path4971-2-0-3-0"
         inkscape:connector-curvature="0"
         sodipodi:nodetypes="scssscsss" />
    </g>
  </g>
</svg>
